<svg xmlns="http://www.w3.org/2000/svg" width="83" height="65">
    <path fill="#FFF" fill-rule="evenodd" d="M78.26 24.983c-10.044 6.798-17.669 12.08-22.874 15.846-1.746 1.286-3.162 2.289-4.249 3.009-1.087.719-2.534 1.455-4.34 2.205-1.807.749-3.491 1.125-5.053 1.125h-.092c-1.561 0-3.246-.376-5.052-1.125-1.807-.75-3.254-1.486-4.34-2.205-1.088-.72-2.503-1.723-4.249-3.009-4.134-3.031-11.743-8.314-22.828-15.846-1.745-1.163-3.292-2.496-4.639-3.997v36.47c0 2.021.719 3.751 2.159 5.19 1.439 1.439 3.169 2.159 5.19 2.159h67.611c2.021 0 3.75-.72 5.19-2.159 1.439-1.439 2.159-3.169 2.159-5.19v-36.47c-1.317 1.471-2.848 2.802-4.593 3.997zm2.411-22.69C79.216.854 77.494.135 75.504.135H7.893c-2.358 0-4.172.796-5.443 2.387C1.179 4.115.544 6.106.544 8.493c0 1.93.842 4.02 2.526 6.27 1.684 2.251 3.475 4.019 5.374 5.305 1.041.735 4.18 2.917 9.416 6.545 5.237 3.629 9.247 6.423 12.034 8.383.306.214.957.682 1.952 1.4.995.72 1.822 1.303 2.481 1.746.658.445 1.453.941 2.388 1.492.934.551 1.814.966 2.641 1.241.827.276 1.592.413 2.296.413h.092c.704 0 1.47-.137 2.297-.413.827-.275 1.707-.69 2.641-1.241.933-.551 1.729-1.047 2.388-1.492.658-.443 1.485-1.026 2.481-1.746.994-.718 1.645-1.186 1.952-1.4 2.816-1.96 9.982-6.935 21.495-14.928 2.235-1.562 4.103-3.445 5.604-5.65 1.5-2.205 2.251-4.516 2.251-6.935 0-2.021-.728-3.751-2.182-5.19z"/>
</svg>
