<svg xmlns="http://www.w3.org/2000/svg" width="83" height="83">
    <path fill="#FFF" fill-rule="evenodd" d="M82.411 63.683c-.233-.697-1.704-1.723-4.413-3.077-.736-.427-1.781-1.007-3.136-1.742-1.355-.735-2.584-1.414-3.687-2.033-1.103-.619-2.139-1.22-3.106-1.8-.156-.116-.639-.454-1.452-1.016-.813-.561-1.501-.978-2.062-1.248-.561-.271-1.113-.407-1.654-.407-.775 0-1.742.551-2.904 1.655-1.161 1.103-2.226 2.304-3.193 3.6-.969 1.297-1.994 2.497-3.078 3.6-1.084 1.104-1.974 1.655-2.671 1.655-.348 0-.784-.096-1.306-.291-.523-.193-.92-.357-1.191-.493-.271-.135-.736-.407-1.393-.813-.659-.407-1.026-.628-1.104-.667-5.303-2.943-9.852-6.31-13.645-10.104-3.794-3.793-7.162-8.342-10.104-13.645-.039-.078-.261-.445-.667-1.104-.407-.658-.678-1.122-.813-1.393-.136-.272-.301-.669-.494-1.191-.194-.522-.29-.958-.29-1.307 0-.697.551-1.586 1.655-2.67 1.103-1.084 2.302-2.11 3.6-3.078 1.297-.967 2.497-2.033 3.6-3.193 1.103-1.162 1.655-2.129 1.655-2.904 0-.541-.136-1.093-.407-1.655-.271-.561-.687-1.249-1.248-2.062-.562-.812-.9-1.296-1.016-1.451-.581-.966-1.181-2.003-1.8-3.106-.62-1.103-1.298-2.332-2.033-3.687-.735-1.355-1.316-2.4-1.742-3.136-1.355-2.709-2.38-4.181-3.077-4.414-.271-.115-.678-.173-1.219-.173-1.046 0-2.41.194-4.094.581-1.684.387-3.01.793-3.978 1.219-1.936.813-3.987 3.174-6.155 7.083C1.815 12.857.828 16.456.828 20.017c0 1.045.067 2.062.203 3.049.135.986.378 2.099.726 3.339.348 1.239.629 2.158.842 2.758.212.6.61 1.674 1.19 3.222.581 1.549.929 2.497 1.045 2.846 1.355 3.794 2.962 7.181 4.82 10.161 3.057 4.956 7.229 10.074 12.513 15.358 5.284 5.284 10.403 9.456 15.359 12.514 2.98 1.858 6.367 3.464 10.161 4.82.349.115 1.297.464 2.846 1.044 1.547.581 2.621.979 3.222 1.191.6.213 1.519.493 2.758.842s2.352.591 3.339.725c.987.137 2.004.204 3.049.204 3.561 0 7.161-.988 10.8-2.962 3.909-2.167 6.271-4.218 7.084-6.155.425-.967.832-2.293 1.219-3.977.387-1.684.581-3.049.581-4.093 0-.543-.058-.949-.174-1.22z"/>
</svg>
