<svg xmlns="http://www.w3.org/2000/svg" width="61" height="90">
    <path fill="#FFF" fill-rule="evenodd" d="M30.706 45.096c-4.104 0-7.607-1.452-10.51-4.355-2.903-2.903-4.355-6.406-4.355-10.51 0-4.103 1.452-7.606 4.355-10.51 2.903-2.903 6.406-4.355 10.51-4.355 4.103 0 7.607 1.452 10.51 4.355 2.904 2.904 4.355 6.407 4.355 10.51 0 4.104-1.451 7.607-4.355 10.51-2.903 2.903-6.407 4.355-10.51 4.355zm21.02-35.885C45.919 3.404 38.913.501 30.706.501c-8.207 0-15.213 2.903-21.02 8.71C3.88 15.018.976 22.025.976 30.231c0 4.22.639 7.685 1.916 10.393l21.195 44.944c.58 1.277 1.48 2.284 2.7 3.019 1.219.735 2.525 1.103 3.919 1.103 1.394 0 2.7-.368 3.92-1.103 1.219-.735 2.138-1.742 2.758-3.019L58.52 40.624c1.277-2.708 1.916-6.173 1.916-10.393 0-8.206-2.903-15.213-8.71-21.02z"/>
</svg>
